<svg width="170" height="172" viewBox="0 0 170 172" fill="none" xmlns="http://www.w3.org/2000/svg">
<g clip-path="url(#clip0_30_34)">
<rect width="170" height="172" rx="36" fill="white"/>
<path d="M75.375 108.25C75.375 111.292 74.75 114.146 73.5 116.812C72.2917 119.479 70.6458 121.812 68.5625 123.812C66.5208 125.812 64.125 127.396 61.375 128.562C58.6667 129.688 55.7917 130.25 52.75 130.25H46.3125C43.2708 130.25 40.375 129.688 37.625 128.562C34.9167 127.396 32.5208 125.812 30.4375 123.812C28.3958 121.812 26.75 119.479 25.5 116.812C24.2917 114.146 23.6875 111.292 23.6875 108.25V104.688L31.75 103.375V108.25C31.75 110.25 32.1458 112.125 32.9375 113.875C33.7708 115.583 34.875 117.104 36.25 118.438C37.625 119.729 39.2083 120.75 41 121.5C42.8333 122.25 44.75 122.625 46.75 122.625H52.375C54.375 122.625 56.2708 122.25 58.0625 121.5C59.8542 120.75 61.4375 119.729 62.8125 118.438C64.1875 117.104 65.2708 115.583 66.0625 113.875C66.8958 112.125 67.3125 110.25 67.3125 108.25V105.562C67.3125 102.479 66.7083 99.9167 65.5 97.875C64.2917 95.8333 62.6875 94.1042 60.6875 92.6875C58.6875 91.2292 56.4167 90 53.875 89C51.375 88 48.7917 87 46.125 86C43.4583 85 40.8542 83.8958 38.3125 82.6875C35.8125 81.4792 33.5625 79.9792 31.5625 78.1875C29.5625 76.3542 27.9583 74.125 26.75 71.5C25.5417 68.875 24.9375 65.6458 24.9375 61.8125V60.125C24.9375 57.0833 25.5 54.2292 26.625 51.5625C27.7917 48.8958 29.375 46.5625 31.375 44.5625C33.375 42.5625 35.7083 41 38.375 39.875C41.0833 38.7083 43.9583 38.125 47 38.125H52.75C55.7917 38.125 58.6458 38.7083 61.3125 39.875C63.9792 41 66.3125 42.5625 68.3125 44.5625C70.3125 46.5625 71.875 48.8958 73 51.5625C74.1667 54.2292 74.75 57.0833 74.75 60.125V62.4375L66.6875 63.75V60.125C66.6875 58.125 66.3125 56.2708 65.5625 54.5625C64.8125 52.8125 63.7917 51.2917 62.5 50C61.2083 48.7083 59.6875 47.6875 57.9375 46.9375C56.2292 46.1875 54.375 45.8125 52.375 45.8125H47.375C45.375 45.8125 43.5 46.1875 41.75 46.9375C40.0417 47.6875 38.5208 48.7083 37.1875 50C35.8958 51.2917 34.875 52.8125 34.125 54.5625C33.375 56.2708 33 58.125 33 60.125V61.8125C33 64.6875 33.6042 67.1042 34.8125 69.0625C36.0208 71.0208 37.625 72.7083 39.625 74.125C41.625 75.5 43.875 76.7083 46.375 77.75C48.9167 78.75 51.5208 79.7917 54.1875 80.875C56.8542 81.9167 59.4375 83.0833 61.9375 84.375C64.4792 85.625 66.75 87.1875 68.75 89.0625C70.75 90.8958 72.3542 93.1458 73.5625 95.8125C74.7708 98.4792 75.375 101.729 75.375 105.562V108.25Z" fill="black"/>
<path d="M135.125 129V88.0625H100.812V129H92.75V39.375H100.812V80.375H135.125V39.375H143.188V129H135.125Z" fill="#C72BE3"/>
</g>
<defs>
<clipPath id="clip0_30_34">
<rect width="170" height="172" fill="white"/>
</clipPath>
</defs>
</svg>
